<?xml version="1.0" encoding="UTF-8"?>
<!-- Simple buildings illustration (scalable) -->
<svg xmlns="http://www.w3.org/2000/svg" viewBox="0 0 600 360" preserveAspectRatio="xMidYMid meet">
  <defs>
    <linearGradient id="sky" x1="0" x2="0" y1="0" y2="1">
      <stop offset="0" stop-color="#dbeafe"/>
      <stop offset="1" stop-color="#ffffff"/>
    </linearGradient>
    <linearGradient id="glass" x1="0" x2="1">
      <stop offset="0" stop-color="#e6f0ff"/>
      <stop offset="1" stop-color="#bfe0ff"/>
    </linearGradient>
  </defs>
  <rect width="100%" height="100%" fill="url(#sky)"/>

  <!-- ground -->
  <rect y="280" width="100%" height="80" fill="#f3f4f6"/>

  <!-- Building 1 -->
  <rect x="40" y="120" width="120" height="160" rx="8" fill="#344054"/>
  <rect x="60" y="140" width="24" height="28" rx="3" fill="url(#glass)"/>
  <rect x="100" y="140" width="24" height="28" rx="3" fill="url(#glass)"/>
  <rect x="60" y="180" width="24" height="28" rx="3" fill="url(#glass)"/>
  <rect x="100" y="180" width="24" height="28" rx="3" fill="url(#glass)"/>

  <!-- Building 2 (taller) -->
  <rect x="200" y="60" width="120" height="220" rx="10" fill="#0f1724"/>
  <rect x="220" y="90" width="24" height="30" rx="3" fill="url(#glass)"/>
  <rect x="260" y="90" width="24" height="30" rx="3" fill="url(#glass)"/>
  <rect x="220" y="140" width="24" height="30" rx="3" fill="url(#glass)"/>
  <rect x="260" y="140" width="24" height="30" rx="3" fill="url(#glass)"/>
  <rect x="220" y="190" width="24" height="30" rx="3" fill="url(#glass)"/>
  <rect x="260" y="190" width="24" height="30" rx="3" fill="url(#glass)"/>

  <!-- Building 3 (low) -->
  <rect x="360" y="160" width="140" height="120" rx="6" fill="#1f2937"/>
  <rect x="380" y="180" width="20" height="20" rx="2" fill="url(#glass)"/>
  <rect x="410" y="180" width="20" height="20" rx="2" fill="url(#glass)"/>
  <rect x="440" y="180" width="20" height="20" rx="2" fill="url(#glass)"/>

  <!-- sun -->
  <circle cx="520" cy="60" r="28" fill="#ffd54f" opacity="0.9"/>

  <!-- subtle shadow -->
  <ellipse cx="300" cy="320" rx="220" ry="18" fill="#000" opacity="0.06"/>
</svg>
